<svg xmlns="http://www.w3.org/2000/svg" xmlns:xlink="http://www.w3.org/1999/xlink" viewBox="0 0 324.25 209.24"><defs><style>.cls-1{fill:#00ab5c;}.cls-2{fill:url(#linear-gradient);}.cls-3{fill:url(#linear-gradient-2);}.cls-4,.cls-8{opacity:0.75;}.cls-4{fill:url(#linear-gradient-3);}.cls-5{fill:#4a9fd8;}.cls-6{fill:url(#linear-gradient-4);}.cls-7{fill:url(#linear-gradient-5);}.cls-8{fill:url(#linear-gradient-6);}.cls-9{fill:url(#linear-gradient-7);}.cls-10{fill:url(#linear-gradient-8);}</style><linearGradient id="linear-gradient" x1="30.9" y1="109.44" x2="81.21" y2="125.92" gradientUnits="userSpaceOnUse"><stop offset="0" stop-color="#006838"/><stop offset="0.13" stop-color="#007c43"/><stop offset="0.37" stop-color="#009e55"/><stop offset="0.5" stop-color="#00ab5c"/></linearGradient><linearGradient id="linear-gradient-2" x1="39.61" y1="178.2" x2="97.69" y2="178.2" gradientUnits="userSpaceOnUse"><stop offset="0.21" stop-color="#00ab5c"/><stop offset="0.47" stop-color="#00a85b"/><stop offset="0.64" stop-color="#00a056"/><stop offset="0.78" stop-color="#00914e"/><stop offset="0.91" stop-color="#007c43"/><stop offset="1" stop-color="#006838"/></linearGradient><linearGradient id="linear-gradient-3" x1="13.77" y1="39.72" x2="13.77" gradientUnits="userSpaceOnUse"><stop offset="0" stop-color="#00ab5c"/><stop offset="0.12" stop-color="#05ac5e"/><stop offset="0.25" stop-color="#12af65"/><stop offset="0.39" stop-color="#28b571"/><stop offset="0.53" stop-color="#48bd81"/><stop offset="0.68" stop-color="#70c795"/><stop offset="0.83" stop-color="#a0d3ae"/><stop offset="0.87" stop-color="#aed6b5"/></linearGradient><linearGradient id="linear-gradient-4" x1="-1015.36" y1="115.62" x2="-962.42" y2="115.62" gradientTransform="matrix(-1, 0, 0, 1, -734.77, 0)" gradientUnits="userSpaceOnUse"><stop offset="0.46" stop-color="#4a9fd8"/><stop offset="0.8" stop-color="#2c86c1"/><stop offset="1" stop-color="#1f7bb7"/></linearGradient><linearGradient id="linear-gradient-5" x1="-1020.16" y1="175.22" x2="-970.28" y2="203.75" gradientTransform="matrix(-1, 0, 0, 1, -734.77, 0)" gradientUnits="userSpaceOnUse"><stop offset="0" stop-color="#1f7bb7"/><stop offset="0.09" stop-color="#2a84bf"/><stop offset="0.28" stop-color="#3c93cd"/><stop offset="0.49" stop-color="#479cd5"/><stop offset="0.72" stop-color="#4a9fd8"/></linearGradient><linearGradient id="linear-gradient-6" x1="-948.65" y1="39.72" x2="-948.65" gradientTransform="matrix(-1, 0, 0, 1, -734.77, 0)" gradientUnits="userSpaceOnUse"><stop offset="0.28" stop-color="#4a9fd8"/><stop offset="0.32" stop-color="#51a2d9"/><stop offset="0.63" stop-color="#87bbe4"/><stop offset="0.87" stop-color="#a9cbeb"/><stop offset="1" stop-color="#b6d1ed"/></linearGradient><linearGradient id="linear-gradient-7" x1="158.16" y1="126.91" x2="177.75" y2="136.27" gradientUnits="userSpaceOnUse"><stop offset="0" stop-color="#1f7bb7"/><stop offset="0.13" stop-color="#2b85c0"/><stop offset="0.43" stop-color="#4298d2"/><stop offset="0.62" stop-color="#4a9fd8"/></linearGradient><linearGradient id="linear-gradient-8" x1="159.04" y1="179.65" x2="177.63" y2="190.86" gradientUnits="userSpaceOnUse"><stop offset="0" stop-color="#006838"/><stop offset="0.04" stop-color="#00703c"/><stop offset="0.18" stop-color="#008a4a"/><stop offset="0.32" stop-color="#009c54"/><stop offset="0.47" stop-color="#00a75a"/><stop offset="0.63" stop-color="#00ab5c"/></linearGradient></defs><title>Asset 1</title><g id="Layer_2" data-name="Layer 2"><g id="Layer_1-2" data-name="Layer 1"><path class="cls-1" d="M0,.06V146.9H0v.27a62,62,0,0,0,62.06,62.07c1.2,0,2.38,0,3.55-.1h0a62.5,62.5,0,0,0,13-2.14l1.29-.37h0a62.07,62.07,0,1,0-52.36-111V24.91h0C27.47,11.16,15.2,0,.05,0h0S0,0,0,.06ZM27.54,147.17c0-.34,0-.69,0-1h0a34.53,34.53,0,0,1,68.62-4.31h0a34.54,34.54,0,0,1-34.12,39.85,34.56,34.56,0,0,1-34.52-34.52Z"/><path class="cls-2" d="M27.54,95.62l0,50.52a34.57,34.57,0,0,1,30.18-33.22l22.74-25a62,62,0,0,0-52.94,7.73Z"/><path class="cls-3" d="M39.61,173.37l3.1,32.78a61.94,61.94,0,0,0,19.35,3.09c1.2,0,2.38,0,3.55-.1h0a62.5,62.5,0,0,0,13-2.14c25.73-15.95,18-59.83,18-59.83a34.48,34.48,0,0,1-57,26.2Z"/><path class="cls-4" d="M0,.06V39.72c9.92-.73,20.61-1.5,27.54-1.93V24.91h0C27.47,11.16,15.2,0,.05,0h0S0,0,0,.06Z"/><path class="cls-5" d="M200.11.06V146.9h0a2.44,2.44,0,0,0,0,.27,62,62,0,0,0,62.07,62.07c1.19,0,2.37,0,3.55-.1h0a62.4,62.4,0,0,0,13-2.14l1.29-.37h0a62.07,62.07,0,1,0-52.36-111V24.91h0C227.58,11.16,215.31,0,200.17,0h0A.06.06,0,0,0,200.11.06Zm27.55,147.11c0-.34,0-.69,0-1h0a34.58,34.58,0,0,1,30.19-33.22,34.2,34.2,0,0,1,4.32-.27,34.57,34.57,0,0,1,34.11,29.18h0a34.54,34.54,0,0,1-34.11,39.85,34.3,34.3,0,0,1-16.48-4.19,34.61,34.61,0,0,1-18-30.33Z"/><path class="cls-6" d="M227.66,95.62v50.52a34.58,34.58,0,0,1,30.19-33.22l22.74-25a62,62,0,0,0-52.94,7.73Z"/><path class="cls-7" d="M239.72,173.37l3.1,32.78a62,62,0,0,0,19.36,3.09c1.19,0,2.37,0,3.55-.1h0a62.4,62.4,0,0,0,13-2.14c25.73-15.95,18-59.83,18-59.83a34.5,34.5,0,0,1-57,26.2Z"/><path class="cls-8" d="M200.11.06V39.72c9.92-.73,20.61-1.5,27.55-1.93V24.91h0C227.58,11.16,215.31,0,200.17,0h0A.06.06,0,0,0,200.11.06Z"/><path class="cls-5" d="M177.85,128.38a15.73,15.73,0,0,1-15.73,15.73,15.34,15.34,0,0,1-2.36-.18,15.74,15.74,0,1,1,18.09-15.55Z"/><path class="cls-9" d="M177.85,128.38a15.73,15.73,0,0,1-15.73,15.73,15.34,15.34,0,0,1-2.36-.18,15.74,15.74,0,0,1,12.11-25.77,15.37,15.37,0,0,1,2.37.18A15.65,15.65,0,0,1,177.85,128.38Z"/><path class="cls-1" d="M177.85,181.69a15.73,15.73,0,0,1-15.73,15.73,16.7,16.7,0,0,1-2.36-.17,15.74,15.74,0,1,1,18.09-15.56Z"/><path class="cls-10" d="M177.85,181.69a15.73,15.73,0,0,1-15.73,15.73,16.7,16.7,0,0,1-2.36-.17,15.74,15.74,0,0,1,12.11-25.77,15.37,15.37,0,0,1,2.37.18A15.64,15.64,0,0,1,177.85,181.69Z"/></g></g></svg>